<svg width="12" height="13" viewBox="0 0 12 13" fill="none" xmlns="http://www.w3.org/2000/svg">
<path d="M11.6094 2.61278C11.5277 2.53206 11.4295 2.46794 11.3208 2.42433C11.2121 2.38071 11.0952 2.35852 10.9771 2.3591H10.0714V1.71778C10.0735 1.57713 10.0451 1.43756 9.98802 1.3077C9.93093 1.17784 9.84634 1.06043 9.73948 0.96271C9.63622 0.861661 9.51219 0.781709 9.37504 0.727783C9.23789 0.673856 9.09053 0.647098 8.94205 0.649158H8.49078C8.34223 0.647195 8.19484 0.674071 8.05769 0.728127C7.92054 0.782183 7.79654 0.862274 7.69335 0.963458C7.58645 1.06115 7.50184 1.17855 7.44475 1.30842C7.38765 1.43829 7.35929 1.57787 7.36141 1.71853V2.35985H4.65141V1.71778C4.65348 1.57713 4.6251 1.43756 4.56801 1.3077C4.51092 1.17784 4.42633 1.06043 4.31947 0.96271C4.2163 0.861753 4.0924 0.781855 3.95539 0.727932C3.81839 0.674009 3.67118 0.647201 3.52283 0.649158H3.07156C2.92302 0.647195 2.77562 0.674071 2.63847 0.728127C2.50132 0.782183 2.37732 0.862274 2.27412 0.963458C2.16726 1.06117 2.08268 1.17858 2.02559 1.30845C1.9685 1.43831 1.94012 1.57787 1.94219 1.71853V2.35985H1.03886C0.9208 2.35927 0.803857 2.38146 0.695156 2.42508C0.586455 2.46869 0.488274 2.53281 0.406601 2.61353C0.321353 2.69087 0.253633 2.78383 0.207571 2.88676C0.161509 2.98968 0.13807 3.10041 0.138682 3.2122V11.7664C0.14173 11.9919 0.237427 12.2074 0.405477 12.3672C0.573526 12.5271 0.800711 12.6186 1.03886 12.6225H10.974C11.2125 12.6194 11.4404 12.5283 11.6091 12.3685C11.7778 12.2088 11.874 11.993 11.8773 11.7671V3.21444C11.8783 3.10215 11.8551 2.99085 11.809 2.88738C11.763 2.78391 11.695 2.69046 11.6094 2.61278ZM3.07393 11.7664H1.03886V9.84242H3.07077L3.07393 11.7664ZM3.07393 9.41438H1.03886V7.27639H3.07077L3.07393 9.41438ZM3.07393 6.84835H1.03886V4.92438H3.07077L3.07393 6.84835ZM2.91586 3.79141C2.89448 3.77212 2.87749 3.74889 2.86594 3.72315C2.85438 3.69741 2.84851 3.66971 2.84869 3.64174V1.71778C2.84951 1.66126 2.87358 1.60727 2.91579 1.5673C2.95801 1.52733 3.01503 1.50453 3.07472 1.50375H3.52283C3.58252 1.50453 3.63954 1.52733 3.68175 1.5673C3.72397 1.60727 3.74804 1.66126 3.74886 1.71778V3.64249C3.74804 3.69901 3.72397 3.753 3.68175 3.79297C3.63954 3.83294 3.58252 3.85574 3.52283 3.85651H3.07156C3.04171 3.85674 3.01213 3.85115 2.98466 3.84007C2.95719 3.829 2.93243 3.81269 2.91191 3.79215L2.91586 3.79141ZM5.78393 11.7656H3.52283V9.84242H5.78077L5.78393 11.7656ZM5.78393 9.41363H3.52283V7.27639H5.78077L5.78393 9.41363ZM5.78393 6.8476H3.52283V4.92438H5.78077L5.78393 6.8476ZM8.49394 11.7649H6.23205V9.84242H8.48999L8.49394 11.7649ZM8.49394 9.41288H6.23205V7.27639H8.48999L8.49394 9.41288ZM8.49394 6.84685H6.23205V4.92438H8.48999L8.49394 6.84685ZM8.33587 3.78991C8.3141 3.77118 8.29656 3.74845 8.28434 3.72311C8.27211 3.69777 8.26545 3.67034 8.26475 3.64249V1.71778C8.26536 1.6612 8.28937 1.6071 8.33163 1.56709C8.37389 1.52707 8.43102 1.50434 8.49078 1.50375H8.94205C9.0018 1.50434 9.05894 1.52707 9.10119 1.56709C9.14345 1.6071 9.16746 1.6612 9.16808 1.71778V3.64249C9.16746 3.69907 9.14345 3.75317 9.10119 3.79318C9.05894 3.83319 9.0018 3.85593 8.94205 3.85651H8.49078C8.46092 3.85679 8.43132 3.85121 8.40385 3.84014C8.37638 3.82906 8.35162 3.81272 8.33113 3.79215L8.33587 3.78991ZM10.9787 11.7641H8.94205V9.84242H10.974L10.9787 11.7641ZM10.9787 9.41213H8.94205V7.27639H10.974L10.9787 9.41213ZM10.9787 6.8461H8.94205V4.92438H10.974L10.9787 6.8461Z" fill="#333333"/>
</svg>
